<?xml version="1.0" encoding="utf-8"?>
<!-- Generator: Adobe Illustrator 27.1.1, SVG Export Plug-In . SVG Version: 6.00 Build 0)  -->
<svg version="1.1" id="a" xmlns="http://www.w3.org/2000/svg" xmlns:xlink="http://www.w3.org/1999/xlink" x="0px" y="0px"
	 viewBox="0 0 223.8 223.8" style="enable-background:new 0 0 223.8 223.8;" xml:space="preserve">
<style type="text/css">
	.st0{fill:#3E6EFA;}
	.st1{fill:none;stroke:#ABABAB;stroke-width:21;stroke-miterlimit:10;}
	.st2{fill:none;stroke:#FFFFFF;stroke-width:21;stroke-miterlimit:10;}
</style>
<path class="st0" d="M223.8,223.8H62.4C27.9,223.8,0,195.9,0,161.4v-99C0,27.9,27.9,0,62.4,0h99c34.5,0,62.4,27.9,62.4,62.4V223.8z"
	/>
<ellipse class="st1" cx="113.8" cy="131.3" rx="84.6" ry="57.7"/>
<path class="st0" d="M189.7,90c0,0-1.1,9.4-2.4,13.3s-4.5,11.1-4.5,11.1c2.2,3.4,3.7,7.7,3.7,7.7s5.5-8,6.8-11.6s3-13.2,2.9-13.4
	C194.5,94.5,189.7,90,189.7,90z"/>
<ellipse transform="matrix(0.8141 -0.5807 0.5807 0.8141 -41.3011 78.8672)" class="st2" cx="102.5" cy="103.9" rx="84.6" ry="59.9"/>
</svg>
